<svg width="198" height="21" viewBox="0 0 198 21" xmlns="http://www.w3.org/2000/svg">
  <desc>
    OneStepBooking.com
  </desc>
  <g fill-rule="nonzero" fill="#FFF" class="logo-svg">
    <path d="M13.59 14.34c-1.525 1.488-3.408 2.232-5.652 2.232-2.243 0-4.126-.744-5.65-2.232C.763 12.85 0 10.997 0 8.776 0 6.554.762 4.7 2.286 3.21 3.81 1.723 5.694.98 7.936.98c2.245 0 4.13.744 5.653 2.23 1.523 1.49 2.285 3.344 2.286 5.565 0 2.22-.762 4.076-2.287 5.565zM11.72 4.904c-1.028-1.064-2.29-1.596-3.784-1.596-1.494 0-2.755.532-3.783 1.596S2.613 7.26 2.613 8.776c0 1.516.514 2.807 1.542 3.87 1.028 1.066 2.29 1.598 3.783 1.597 1.495 0 2.756-.532 3.784-1.596s1.542-2.354 1.542-3.87c0-1.52-.514-2.81-1.542-3.873zM19.325 10.21v6.21H16.91V4.944h2.415V7.04c.763-1.398 2.227-2.266 3.82-2.266 1.293 0 2.338.396 3.136 1.186.8.79 1.198 1.934 1.197 3.43v7.03h-2.415v-6.296c0-2.114-.877-3.17-2.632-3.17-.804-.01-1.582.286-2.175.83-.62.553-.93 1.362-.93 2.426zM39.792 11.74H30.8c.056.835.437 1.507 1.142 2.018.7.51 1.55.778 2.416.765 1.438 0 2.53-.453 3.278-1.358l1.38 1.513c-1.236 1.28-2.846 1.92-4.83 1.92-1.61 0-2.98-.536-4.11-1.61-1.127-1.07-1.69-2.508-1.692-4.312 0-1.804.575-3.24 1.725-4.303 1.095-1.043 2.555-1.616 4.067-1.596 1.56 0 2.887.47 3.98 1.413 1.093.942 1.638 2.24 1.635 3.89v1.66zM30.8 9.844h6.577c0-.963-.302-1.704-.906-2.222-.603-.516-1.347-.775-2.23-.775-.864-.007-1.704.278-2.384.81-.705.538-1.058 1.267-1.057 2.188zM46.49 3.33c-.742 0-1.35.15-1.824.453-.475.302-.712.758-.712 1.37 0 .61.238 1.077.713 1.4.474.324 1.483.673 3.027 1.047 1.547.372 2.713.897 3.497 1.574.785.676 1.177 1.672 1.177 2.987 0 1.317-.496 2.384-1.488 3.204-.993.82-2.295 1.23-3.905 1.23-2.358 0-4.45-.813-6.277-2.438l1.596-1.92c1.524 1.325 3.105 1.987 4.745 1.987.82 0 1.47-.176 1.95-.53.463-.313.735-.84.723-1.4 0-.583-.226-1.036-.68-1.36-.452-.324-1.23-.618-2.335-.882-1.108-.265-1.95-.51-2.524-.732-.554-.21-1.072-.506-1.535-.875-.89-.677-1.334-1.713-1.334-3.108s.504-2.47 1.513-3.225c1.013-.756 2.267-1.135 3.763-1.135.975.002 1.944.162 2.868.473.898.288 1.732.742 2.46 1.338L50.555 4.71c-.446-.402-1.05-.733-1.81-.992-.726-.253-1.488-.384-2.255-.388z"/>
    <path d="M55.73 6.888v5.824c0 .546.144.98.432 1.304.287.323.69.485 1.208.485.517 0 1.013-.25 1.488-.755l.992 1.702c-.85.763-1.787 1.144-2.815 1.143-.986.017-1.936-.37-2.63-1.068-.724-.71-1.086-1.667-1.086-2.876V6.888h-1.45V4.943h1.45V1.348h2.415v3.595h3.02v1.945H55.73z"/>
    <path d="M70.72 11.74h-8.994c.057.835.438 1.507 1.143 2.018.7.51 1.548.778 2.414.765 1.438 0 2.53-.453 3.28-1.358l1.38 1.513c-1.237 1.28-2.848 1.92-4.832 1.92-1.61 0-2.98-.536-4.108-1.61-1.128-1.07-1.693-2.508-1.693-4.312 0-1.804.576-3.24 1.726-4.303 1.096-1.043 2.556-1.616 4.068-1.596 1.56 0 2.886.47 3.98 1.413 1.092.942 1.64 2.24 1.64 3.893l-.004 1.658zm-8.994-1.897h6.578c0-.963-.302-1.704-.906-2.222-.604-.516-1.35-.775-2.233-.775-.864-.008-1.705.277-2.386.81-.703.538-1.054 1.267-1.054 2.188zM77.794 4.774c1.538 0 2.854.532 3.946 1.596s1.64 2.48 1.64 4.248c0 1.766-.542 3.204-1.628 4.314-1.085 1.11-2.35 1.663-3.796 1.66-1.445 0-2.743-.632-3.892-1.897v5.91h-2.417V4.943h2.416v2.01c.95-1.453 2.193-2.18 3.73-2.18zm-3.775 5.93c0 1.094.33 1.99.992 2.686.618.68 1.498 1.06 2.416 1.046.946 0 1.772-.345 2.48-1.035.707-.69 1.06-1.585 1.056-2.687 0-1.1-.344-2.014-1.034-2.743-.69-.73-1.517-1.09-2.482-1.082-.933-.013-1.824.386-2.436 1.09-.662.726-.993 1.635-.993 2.727zM91.554 16.42h-6.6V1.35h5.865c1.02 0 1.9.122 2.64.367.742.245 1.298.575 1.67.99.676.776 1.014 1.653 1.014 2.63 0 1.18-.38 2.057-1.143 2.632-.168.14-.348.267-.538.378-.1.05-.28.133-.54.248.936.2 1.68.622 2.233 1.262.554.64.83 1.434.83 2.383.008 1.03-.377 2.025-1.077 2.782-.834.934-2.285 1.4-4.354 1.4zM88.32 7.45h1.595c.935 0 1.628-.1 2.08-.302.454-.202.68-.636.68-1.305 0-.668-.208-1.11-.625-1.324-.417-.216-1.12-.324-2.113-.328H88.32V7.45zm0 6.124h2.307c.963 0 1.686-.118 2.167-.355.482-.238.723-.706.723-1.403 0-.698-.255-1.158-.765-1.38-.51-.223-1.326-.335-2.446-.335H88.32v3.472zM109.8 10.618c0 1.682-.583 3.1-1.747 4.25-1.165 1.15-2.628 1.725-4.39 1.725-1.76 0-3.224-.575-4.39-1.726-1.164-1.15-1.746-2.566-1.745-4.25 0-1.68.582-3.1 1.747-4.256 1.165-1.154 2.628-1.732 4.39-1.734 1.76 0 3.224.578 4.39 1.735 1.163 1.16 1.745 2.578 1.745 4.258zm-9.015 0c0 .946.27 1.72.81 2.32.538.598 1.228.897 2.07.894.84 0 1.53-.3 2.07-.895.54-.597.81-1.37.81-2.32 0-.945-.27-1.72-.81-2.33-.54-.606-1.23-.908-2.07-.905-.842 0-1.532.302-2.07.906-.54.605-.81 1.38-.81 2.33zM122.503 10.618c0 1.682-.583 3.1-1.747 4.25-1.165 1.15-2.628 1.725-4.39 1.725-1.76 0-3.224-.575-4.39-1.726-1.163-1.15-1.746-2.566-1.745-4.25 0-1.68.583-3.1 1.748-4.256 1.165-1.154 2.628-1.732 4.39-1.734 1.76 0 3.224.578 4.39 1.735 1.163 1.16 1.745 2.578 1.745 4.258zm-9.015 0c0 .946.27 1.72.81 2.32.538.598 1.228.897 2.07.894.84 0 1.53-.3 2.07-.895.54-.597.81-1.37.81-2.32 0-.945-.27-1.72-.81-2.33-.54-.606-1.23-.908-2.07-.905-.842 0-1.532.302-2.07.906-.54.605-.81 1.38-.81 2.33zM126.407 16.42h-3.235V.42h3.235v8.214l3.602-3.84h4.075l-4.42 4.702 4.592 6.924h-3.843l-2.955-4.446-1.053 1.106M134.98 3.34c-.362-.354-.56-.842-.55-1.348-.01-.506.188-.994.55-1.348.748-.733 1.946-.733 2.695 0 .36.354.56.842.55 1.348.01.506-.19.994-.55 1.348-.75.733-1.947.733-2.696 0zm2.964 13.08h-3.235V4.82h3.234V16.42zM142.086 9.95v6.47h-3.235V4.82h3.236v1.294c.977-.992 2.077-1.488 3.3-1.488 1.22 0 2.246.43 3.073 1.294.825.863 1.24 2.013 1.24 3.45v7.054h-3.236v-6.56c0-1.783-.655-2.675-1.963-2.675-.635-.004-1.246.25-1.692.7-.482.47-.723 1.158-.722 2.063zM159.49 14.46c-1.02 1.134-2.29 1.7-3.806 1.7-1.517 0-2.796-.512-3.84-1.54-1.043-1.028-1.565-2.4-1.565-4.12 0-1.717.535-3.126 1.607-4.226s2.298-1.65 3.678-1.65 2.522.567 3.43 1.702v-1.53h3.234V14.91c0 1.036-.18 1.957-.54 2.76-.36.806-.842 1.438-1.446 1.9-1.194.945-2.603 1.418-4.227 1.418-.897-.006-1.788-.148-2.642-.42-.853-.257-1.654-.662-2.365-1.198l1.255-2.432c1.064.805 2.19 1.208 3.375 1.208 1.186 0 2.125-.295 2.814-.884.69-.59 1.036-1.524 1.036-2.803zm-.453-4.09c0-.926-.26-1.655-.776-2.188-.498-.524-1.195-.814-1.92-.798-.737-.01-1.448.278-1.972.798-.554.533-.83 1.258-.83 2.176 0 .918.27 1.662.808 2.233.506.554 1.224.864 1.973.852.738.016 1.447-.29 1.94-.84.52-.56.778-1.304.777-2.23zM163.202 16.234c-.186-.187-.29-.442-.284-.706-.002-.262.1-.514.285-.7.185-.185.436-.29.697-.288.265-.005.52.097.707.284.19.182.297.436.293.7 0 .266-.104.52-.292.71-.187.187-.442.293-.708.294-.263.003-.516-.103-.698-.294zM168.664 16.528c-.95.015-1.865-.347-2.547-1.007-.712-.67-1.067-1.548-1.067-2.633 0-1.086.37-1.97 1.113-2.65.742-.68 1.647-1.02 2.714-1.02 1.016-.02 1.996.38 2.707 1.107l-.88 1.08c-.614-.533-1.232-.8-1.855-.8-.6-.008-1.18.214-1.62.62-.456.406-.707.992-.688 1.6-.005.626.242 1.226.685 1.667.443.44 1.044.685 1.67.676.66 0 1.286-.302 1.873-.907l.88.96c-.86.87-1.856 1.308-2.986 1.308zM178.184 15.467c-.71.707-1.6 1.06-2.668 1.06-1.067 0-1.956-.353-2.667-1.06-.7-.68-1.088-1.618-1.068-2.594-.02-.975.367-1.915 1.067-2.594.71-.708 1.6-1.062 2.666-1.062 1.068 0 1.957.354 2.668 1.06.7.68 1.087 1.62 1.067 2.595.02.976-.366 1.915-1.066 2.594zm-4.275-.92c.898.863 2.317.863 3.216 0 .42-.432.633-.99.633-1.675 0-.684-.21-1.243-.634-1.674-.898-.864-2.32-.864-3.217 0-.423.43-.634.99-.634 1.674 0 .685.212 1.243.636 1.675h-.003zM181.64 12.58v3.84h-1.492V9.327h1.493v1.292c.212-.433.55-.79.968-1.027.423-.246.904-.375 1.394-.373 1.12 0 1.88.463 2.28 1.387.703-.924 1.58-1.387 2.628-1.387.8 0 1.447.245 1.94.734.495.49.742 1.198.742 2.122v4.352h-1.494v-3.898c0-1.307-.542-1.96-1.627-1.96-.485-.007-.957.166-1.323.486-.378.325-.577.798-.594 1.42v3.948h-1.494v-3.894c0-.675-.12-1.17-.36-1.487-.24-.317-.62-.474-1.136-.474-.498-.006-.98.177-1.347.514-.384.342-.576.84-.576 1.5zM197.59 3.334c.148.176.168.426.06.75-.112.33-.3.628-.548.872l-.815.816.81 3.522c.018.063-.007.13-.06.167l-.65.488c-.026.02-.06.03-.094.03-.012 0-.023 0-.035-.005-.047-.007-.087-.038-.106-.08l-1.414-2.575-1.315 1.314.27.983c.016.055 0 .116-.042.157l-.485.486c-.03.03-.073.047-.116.045h-.015c-.047-.005-.09-.03-.122-.066l-.957-1.277-1.277-.957c-.04-.027-.064-.07-.067-.117-.003-.046.014-.092.045-.126l.486-.492c.03-.03.073-.047.117-.046.015 0 .028 0 .04.005l.988.27 1.315-1.314-2.574-1.414c-.047-.027-.08-.072-.087-.124-.008-.05.01-.1.045-.137l.65-.65c.038-.04.097-.057.152-.04l3.37.806.81-.81c.244-.25.543-.437.872-.55.322-.106.57-.084.747.068z"/>
  </g>
</svg>
