<svg xmlns="http://www.w3.org/2000/svg" width="17" height="16" viewBox="0 0 17 16">
  <path fill="#4D4D4D" fill-rule="evenodd" d="M14.1710742,1.33010823 C14.4640815,1.67638962 14.5040365,2.16916727 14.2909402,2.80845598 C14.077844,3.44774469 13.7182495,4.02043224 13.2121459,4.5265358 L11.6039433,6.13473842 L13.2021571,13.0869684 C13.2354534,13.2134943 13.1954984,13.3233704 13.082291,13.4166 L11.80372,14.3755282 C11.7571052,14.4154838 11.6938432,14.4354613 11.6139321,14.4354613 C11.5872951,14.4354613 11.5639881,14.4321317 11.5440103,14.4254724 C11.4441214,14.4054947 11.3742003,14.3522214 11.3342447,14.2656511 L8.54735943,9.19132228 L5.96025087,11.7784308 L6.48965918,13.7162651 C6.52295547,13.8294724 6.49631884,13.9326894 6.40974849,14.025919 L5.45082022,14.9848473 C5.39088691,15.0447806 5.3143066,15.0747468 5.22107699,15.0747468 L5.20109932,15.0747468 C5.10121046,15.0614283 5.02130057,15.0181437 4.96136725,14.9448919 L3.07347722,12.4277052 L0.556290508,10.5398152 C0.483038677,10.4932004 0.439754153,10.4166201 0.426435638,10.3100719 C0.419776381,10.2235016 0.44974259,10.1402621 0.516335164,10.060351 L1.47526343,9.09143392 C1.53519675,9.03150061 1.61177706,9.0015344 1.70500667,9.0015344 C1.74496221,9.0015344 1.77159884,9.00486398 1.78491736,9.01152323 L3.72275157,9.54093155 L6.30986013,6.95382299 L1.23553137,4.1669377 C1.14230176,4.11366364 1.08569892,4.03375375 1.06572115,3.92720563 C1.05240264,3.82065751 1.08236885,3.73075889 1.15562068,3.65750705 L2.43419171,2.37893603 C2.52742131,2.29236568 2.62730867,2.26572905 2.73385679,2.29902534 L9.37643283,3.88725029 L10.9746466,2.2890365 C11.4807502,1.78293294 12.0534377,1.42333843 12.6927264,1.2102422 C13.3320151,0.99714596 13.8247928,1.03710091 14.1710742,1.33010823 Z" transform="rotate(45 7.426 8.075)"/>
</svg>
